#File written by LIBUNFOLD3D. Compilation :Apr 13 2018,19:30:35
mtllib DecorationPillar_L:mtl
#begin vertices
v 0 1.915795 -1.041508
v -0.805639 8.308576 0.805639
v 0 1.915795 1.041508
v -0.805639 8.308576 -0.805639
v -0 7.618348 0.541632
v 0.805639 8.308576 0.805639
v -0 7.618348 -0.541632
v 0.805639 8.308576 -0.805639
v -0.999906 1.915795 1.041508
v -0.999906 1.915795 -1.041508
v 0.999906 1.915795 -1.041508
v 0.999906 1.915795 1.041508
v -1.727959 0.029525 -1.799854
v -1.727959 0.029525 1.799854
v -1.727959 0.710007 -1.799854
v 1.727959 0.029525 -1.799854
v 1.727959 0.710007 -1.799854
v 1.727959 0.029525 1.799854
v 1.727959 0.710007 1.799854
v -1.727959 0.710007 1.799854
v 0 0.029525 -1.799854
v 0 0.029525 1.799854
v 0 0.710007 1.799854
v 0 0.710007 -1.799854
v -0.541632 7.618348 0
v 0.541632 7.618348 0
v 0.999906 1.915795 -0
v -0.999906 1.915795 -0
v -1.727959 0.029525 -0
v 1.727959 0.029525 -0
v 1.727959 0.710007 -0
v -1.727959 0.710007 -0
v 0 0.029525 -0
v -0.429302 7.68838 0
v -0.638556 8.340518 -0.638556
v -0 7.68838 -0.429302
v 0.638556 8.340518 -0.638556
v 0.429302 7.68838 0
v 0.638556 8.340518 0.638556
v -0 7.68838 0.429302
v -0.638556 8.340518 0.638556
v -0.789398 12.26036 0
v -0.429302 12.91418 -0.429302
v 0.789398 12.26036 0
v 0.429302 12.91418 0.429302
v 0.429302 12.91418 -0.429302
v -0.429302 12.91418 0.429302
v -0 12.26036 -0.789398
v -0 12.26036 0.789398
v 0.569774 13.05019 -0.569774
v 1.047696 12.46218 0
v -0.569774 13.05019 0.569774
v -1.047696 12.46218 0
v -0.569774 13.05019 -0.569774
v -0 12.46218 -1.047696
v 0.569774 13.05019 0.569774
v -0 12.46218 1.047696
v -0 12.92011 0
v -0 7.617271 -0
v 0 19.25309 -1.095623
v -1.051859 19.25773 -1.095623
v -1.051859 19.25773 1.095623
v 0 19.25309 1.095623
v 1.051859 19.25773 -1.095623
v 1.051859 19.25309 -0
v -1.051859 19.25309 -0
v 1.051859 19.25773 1.095623
v 0 21.23525 -0
v 0 21.23525 1.734259
v 0 21.23525 -1.734259
v -1.664984 21.23525 -0
v 1.664984 21.23525 -0
v -1.664984 21.23127 -1.734259
v 1.664984 21.23127 -1.734259
v 1.664984 21.23127 1.734259
v -1.664984 21.23127 1.734259
v -1.664984 20.40744 -1.734259
v 0 20.4001 1.734259
v 1.664984 20.40744 -1.734259
v -1.664984 20.4001 -0
v 0 20.4001 -1.734259
v -1.664984 20.40744 1.734259
v 1.664984 20.4001 -0
v 1.664984 20.40744 1.734259
v 0 9.264632 0.178686
v 0 10.1274 1.041458
v -0.862773 9.874704 -0.431387
v -0.862773 10.73748 0.431386
v 0.862773 9.874704 -0.431387
v 0.862773 10.73748 0.431386
v 0 10.48478 -1.041459
v 0 11.34755 -0.178686
v -1.224235 0.885759 -1.275171
v 0 0.885759 -1.275171
v 0.708419 1.740042 -0.737894
v 1.224235 0.885759 -1.275171
v 1.224235 0.885759 1.275171
v 0 0.885759 1.275171
v -0.708419 1.740042 -0.737894
v 0 1.740042 -0.737894
v 0.708419 1.740042 0.737894
v 0 1.740042 0.737894
v -0.708419 1.740042 0.737894
v 0.708419 1.740042 -0
v -0.708419 1.740042 -0
v -1.224235 0.885759 1.275171
v 1.224235 0.885759 -0
v -1.224235 0.885759 -0
v -1.182352 20.23993 -1.231546
v -0.746954 19.42349 -0.778033
v 0 19.4202 -0.778033
v 0 20.23472 -1.231546
v 0 19.4202 0.778033
v 0 20.23472 1.231546
v 0.746954 19.42349 -0.778033
v 1.182352 20.23993 -1.231546
v -1.182352 20.23472 0
v -0.746954 19.4202 0
v -0.746954 19.42349 0.778033
v -1.182352 20.23993 1.231546
v 1.182352 20.23993 1.231546
v 0.746954 19.42349 0.778033
v 0.746954 19.4202 0
v 1.182352 20.23472 0
v -0 15.91584 -0.430532
v -0.430532 15.91705 0.430532
v 0.430532 15.91584 0
v 0.430532 15.91705 0.430532
v -0.430532 15.91705 -0.430532
v -0 15.91584 0.430532
v 0.430532 15.91705 -0.430532
v -0.430532 15.91584 0
v -0.435303 4.72122 0.435303
v -0.435303 4.72122 -0.435303
v 0.435303 4.72122 -0.435303
v 0.435303 4.72122 0.435303
v -0 4.711374 0.435303
v -0 4.711374 -0.435303
v 0.435303 4.711374 0
v -0.435303 4.711374 0
v -1.280445 7.491454 1.280445
v -0.860844 7.262769 0
v -1.280445 7.491454 -1.280445
v -0 7.262769 -0.860844
v 1.280445 7.491454 -1.280445
v 0.860844 7.262769 0
v 1.280445 7.491454 1.280445
v -0 7.262769 0.860844
v -0 13.06114 -1.555787
v -1.05279 13.68084 1.05279
v 1.555787 13.06114 0
v 1.05279 13.68084 1.05279
v -1.05279 13.68084 -1.05279
v -0 13.06114 1.555787
v 1.05279 13.68084 -1.05279
v -1.555787 13.06114 0
#end vertices

#begin 244 textures vertices 
vt 0.5237775 0.6346435 0
vt 0.1658248 0.9479182 0
vt 0.3298106 0.8339774 0
vt 0.6402839 0.4705743 0
vt 0.1939078 0.9674051 0
vt 0.6376431 0.9925882 0
vt 0.6596813 0.5012162 0
vt 0.6877644 0.5207029 0
vt 0.3067489 0.6634775 0
vt 0.5010726 0.612606 0
vt 0.5468409 0.8051401 0
vt 0.3525168 0.8560142 0
vt 0.4273163 0.6553476 0
vt 0.3478762 0.7370058 0
vt 0.4118782 0.6403303 0
vt 0.5057125 0.7316137 0
vt 0.5207299 0.7161762 0
vt 0.4262728 0.8132724 0
vt 0.4112548 0.8287082 0
vt 0.3328589 0.7524431 0
vt 0.5464084 0.6566591 0
vt 0.3870727 0.7751411 0
vt 0.3720545 0.7905788 0
vt 0.4815336 0.6780419 0
vt 0.1964662 0.5041101 0
vt 0.6571282 0.9645041 0
vt 0.5238869 0.8287899 0
vt 0.3297035 0.6398283 0
vt 0.3875956 0.6961759 0
vt 0.4659933 0.7724438 0
vt 0.4814307 0.7874616 0
vt 0.3721585 0.6811578 0
vt 0.4267941 0.7343102 0
vt 0.193035 0.5006533 0
vt 0.6467394 0.4710723 0
vt 0.6631382 0.4977851 0
vt 0.6877002 0.5143361 0
vt 0.6605595 0.9679608 0
vt 0.2068503 0.997549 0
vt 0.190451 0.9708363 0
vt 0.1663226 0.5170529 0
vt 0.02233462 0.5446671 0
vt 0.07363972 0.5708183 0
vt 0.5448757 0.02841509 0
vt 0.0739391 0.02089044 0
vt 0.5706754 0.5231642 0
vt 0.02088997 0.517707 0
vt 0.5683428 0.550062 0
vt 0.04697873 0.02232858 0
vt 0.564371 0.519012 0
vt 0.5429122 0.0385039 0
vt 0.02712814 0.5134563 0
vt 0.04869941 0.5584022 0
vt 0.07779033 0.5645128 0
vt 0.5582534 0.5481015 0
vt 0.07818831 0.02712964 0
vt 0.04893706 0.03241852 0
vt 0.07198718 0.001953125 0
vt 0.668767 0.9765311 0
vt 0.3920678 0.396594 0
vt 0.3684373 0.4196114 0
vt 0.1759736 0.2233918 0
vt 0.1994225 0.2001978 0
vt 0.4155163 0.3734002 0
vt 0.3915404 0.2044621 0
vt 0.1999809 0.3923619 0
vt 0.3673911 0.1800283 0
vt 0.2957375 0.2983883 0
vt 0.2577057 0.2596021 0
vt 0.3337857 0.3371913 0
vt 0.2585029 0.3349204 0
vt 0.332994 0.2618783 0
vt 0.296553 0.3737795 0
vt 0.3710987 0.300671 0
vt 0.2949489 0.2229974 0
vt 0.2203761 0.2961325 0
vt 0.3146596 0.3922456 0
vt 0.2393863 0.2409299 0
vt 0.3895661 0.2825701 0
vt 0.2398328 0.3532432 0
vt 0.3521042 0.3558626 0
vt 0.2022825 0.2776584 0
vt 0.3516693 0.2435614 0
vt 0.313425 0.2049044 0
vt 0.1969583 0.07846978 0
vt 0.1969583 0.1167281 0
vt 0.1969583 0.04021147 0
vt 0.1587 0.1167281 0
vt 0.2352166 0.07846978 0
vt 0.2352166 0.1167281 0
vt 0.2734749 0.07846979 0
vt 0.2352166 0.001953134 0
vt 0.3881948 0.6404596 0
vt 0.4937461 0.6654891 0
vt 0.5324407 0.8045248 0
vt 0.5215142 0.6925053 0
vt 0.3876153 0.830144 0
vt 0.3598419 0.8031317 0
vt 0.4999511 0.6269762 0
vt 0.516027 0.6425992 0
vt 0.3536378 0.8416441 0
vt 0.337561 0.8260216 0
vt 0.3211491 0.6640932 0
vt 0.5161678 0.8212695 0
vt 0.3374224 0.6473489 0
vt 0.3320743 0.7761142 0
vt 0.4935337 0.7992363 0
vt 0.3600559 0.6693827 0
vt 0.3371257 0.3935732 0
vt 0.3674083 0.4049032 0
vt 0.3841838 0.3885625 0
vt 0.3637166 0.3677008 0
vt 0.2073067 0.2082293 0
vt 0.2277739 0.2290913 0
vt 0.4008361 0.3720993 0
vt 0.3900288 0.2600713 0
vt 0.2284225 0.3644404 0
vt 0.2077601 0.3847215 0
vt 0.1906533 0.2246933 0
vt 0.2014025 0.2551789 0
vt 0.3359213 0.2048951 0
vt 0.3666138 0.1947463 0
vt 0.3837572 0.2120982 0
vt 0.3630846 0.232369 0
vt 0.4668312 0.4727628 0
vt 0.1146076 0.4572771 0
vt 0.4675458 0.1299032 0
vt 0.1343463 0.1146227 0
vt 0.4571442 0.4821689 0
vt 0.1246592 0.1240288 0
vt 0.4764155 0.4632509 0
vt 0.124016 0.4669619 0
vt 0.2555169 0.5866158 0
vt 0.5771752 0.5602658 0
vt 0.5980751 0.8820002 0
vt 0.2764134 0.9083549 0
vt 0.2664751 0.8990171 0
vt 0.5871133 0.569604 0
vt 0.5887373 0.8919388 0
vt 0.2648549 0.5766775 0
vt 0.1796595 0.9238619 0
vt 0.207813 0.5176103 0
vt 0.6171902 0.483729 0
vt 0.6461809 0.5125626 0
vt 0.67393 0.5447592 0
vt 0.645781 0.9510043 0
vt 0.613586 0.9787552 0
vt 0.2074082 0.9560587 0
vt 0.5346583 0.5410437 0
vt 0.04945731 0.09650779 0
vt 0.5358472 0.06209687 0
vt 0.4950895 0.05470955 0
vt 0.09651328 0.5421706 0
vt 0.05683232 0.05574785 0
vt 0.5427692 0.1029322 0
vt 0.05575152 0.5348054 0
vt 0.1969583 0.001953125 0
vt 0.2352165 0.1549864 0
vt 0.1969582 0.1549864 0
vt 0.1587 0.07846978 0
vt 0.2734749 0.1167281 0
vt 0.2352166 0.04021148 0
vt 0.687769 0.945105 0
vt 0.6872715 0.9515604 0
vt 0.4665155 0.6934794 0
vt 0.5320764 0.6582138 0
vt 0.5216704 0.7703096 0
vt 0.2363994 0.984892 0
vt 0.4417116 0.8282895 0
vt 0.5795517 0.9015014 0
vt 0.6440099 0.9925237 0
vt 0.2133057 0.9980469 0
vt 0.6717089 0.4895781 0
vt 0.4653953 0.8281599 0
vt 0.4999053 0.8379857 0
vt 0.5009568 0.8523609 0
vt 0.1658248 0.5235083 0
vt 0.2569153 0.8898326 0
vt 0.1789801 0.5466016 0
vt 0.332441 0.7219867 0
vt 0.6746131 0.9220121 0
vt 0.3071798 0.8119611 0
vt 0.165889 0.954285 0
vt 0.1818802 0.9790433 0
vt 0.3215122 0.8104068 0
vt 0.3319188 0.698309 0
vt 0.2400089 0.4898604 0
vt 0.4423344 0.6399117 0
vt 0.2159522 0.4760266 0
vt 0.2740409 0.5671152 0
vt 0.4659738 0.6384762 0
vt 0.5966733 0.5787883 0
vt 0.2095854 0.4760909 0
vt 0.3536853 0.6306332 0
vt 0.1848278 0.4920828 0
vt 0.3526342 0.6162579 0
vt 0.5211478 0.7466322 0
vt 0.2240826 0.191888 0
vt 0.5179786 0.02607431 0
vt 0.2230534 0.1771802 0
vt 0.2768379 0.2045374 0
vt 0.2543681 0.2032147 0
vt 0.09766558 0.04881352 0
vt 0.4580366 0.120316 0
vt 0.5138246 0.03237746 0
vt 0.2019172 0.3142457 0
vt 0.001953125 0.5196635 0
vt 0.190733 0.3672526 0
vt 0.02081516 0.07362729 0
vt 0.02711956 0.07777944 0
vt 0.115075 0.1335407 0
vt 0.1759972 0.3677562 0
vt 0.04880729 0.4939738 0
vt 0.2014651 0.3367485 0
vt 0.5195035 0.5948384 0
vt 0.5175516 0.5759011 0
vt 0.2249123 0.4020647 0
vt 0.5133024 0.5696619 0
vt 0.1335304 0.476544 0
vt 0.493825 0.5479781 0
vt 0.2780902 0.3918811 0
vt 0.2555969 0.3919012 0
vt 0.2241433 0.4167828 0
vt 0.5706995 0.07921422 0
vt 0.3891989 0.3191404 0
vt 0.5896374 0.07726804 0
vt 0.3900834 0.3416165 0
vt 0.5420332 0.5002837 0
vt 0.476949 0.1395931 0
vt 0.4007752 0.2295757 0
vt 0.4155111 0.2290803 0
vt 0.564459 0.08346154 0
vt 0.07106441 0.5896809 0
vt 0.03242409 0.5427063 0
vt 0.04674133 0.5684921 0
vt 0.03323723 0.04869 0
vt 0.02314783 0.04672947 0
vt 0.001953125 0.0710474 0
vt 0.5591789 0.05420868 0
vt 0.5692695 0.05225342 0
vt 0.5205642 0.007213054 0
vt 0.5895375 0.525744 0
vt 0.5425536 0.564373 0
vt 0.544512 0.5744629 0
#end 244 textures vertices 

#begin 154 normals 
vn 0 0.5178 0.8555
vn -0.2321 0.9446 0.2321
vn -0.6848 0.2488 0.6848
vn 0 0.0889 0.996
vn -0.2321 0.9446 -0.2321
vn 0 0.5178 -0.8555
vn 0 0.0889 -0.996
vn -0.6848 0.2488 -0.6848
vn -0.8555 0.5178 0
vn -0.996 0.0889 0
vn 0.6611 -0.3442 0.6667
vn 0 -0.4046 0.9145
vn 0 -0.2399 0.9708
vn 0.6594 -0.3958 0.6391
vn 0.9152 -0.4029 0
vn 0.9707 -0.2401 0
vn 0 -1 0
vn 0 -0.7071 -0.7071
vn 0.5773 -0.5773 -0.5773
vn 0.7071 -0.7071 0
vn -0.6611 -0.3442 -0.6667
vn 0 -0.4046 -0.9145
vn 0 -0.2399 -0.9708
vn -0.6594 -0.3958 -0.6391
vn 0.5773 -0.5773 0.5773
vn 0.6076 0.5102 0.6086
vn 0 0.5841 0.8117
vn 0 -0.7071 0.7071
vn -0.6076 0.5102 0.6086
vn -0.5773 -0.5773 0.5773
vn 0.8153 0.579 0
vn 0 0.5841 -0.8117
vn 0.6076 0.5102 -0.6086
vn -0.7071 -0.7071 0
vn -0.8153 0.579 0
vn -0.6076 0.5102 -0.6086
vn -0.5773 -0.5773 -0.5773
vn -0.6611 -0.3442 0.6667
vn -0.9152 -0.4029 0
vn -0.9707 -0.2401 0
vn -0.6594 -0.3958 0.6391
vn -0.6301 0.7765 0
vn -0.2809 0.9193 -0.2756
vn 0.6611 -0.3442 -0.6667
vn 0.6594 -0.3958 -0.6391
vn 0 0.7861 -0.6181
vn 0.2809 0.9193 -0.2756
vn 0.8555 0.5178 0
vn 0.2321 0.9446 0.2321
vn 0.6848 0.2488 0.6848
vn 0.996 0.0889 0
vn 0.1694 0.9709 -0.1694
vn -0.327 0.945 0
vn -0.1694 0.9709 -0.1694
vn 0 0.945 0.327
vn 0.2321 0.9446 -0.2321
vn 0 0.945 -0.327
vn -0.1694 0.9709 0.1694
vn 0.1694 0.9709 0.1694
vn 0.327 0.945 0
vn 0.3985 -0.826 0.3985
vn 0 -0.9968 -0.0801
vn 0 -0.9968 0.0801
vn 0.3985 -0.826 -0.3985
vn -0.3985 -0.826 0.3985
vn 0.0801 -0.9968 0
vn -0.0801 -0.9968 0
vn 0 1 0
vn 0 -0.8953 -0.4454
vn 0.5594 -0.6116 -0.5594
vn -0.5594 -0.6116 0.5594
vn -0.4454 -0.8953 0
vn 0.5594 -0.6116 0.5594
vn 0 -0.8953 0.4454
vn 0.4454 -0.8953 0
vn -0.3985 -0.826 -0.3985
vn -0.5594 -0.6116 -0.5594
vn 0 0.429 -0.9033
vn -0.6555 0.3657 -0.6607
vn -0.6364 0.462 -0.6177
vn 0 0.287 -0.9579
vn 0.6079 -0.5096 -0.6088
vn 0.8129 -0.5823 0
vn 0.6485 -0.7612 0
vn 0.2915 -0.9127 -0.2861
vn -0.6555 0.3657 0.6607
vn 0 0.429 0.9033
vn 0 0.287 0.9579
vn -0.6364 0.462 0.6177
vn -0.6079 -0.5096 -0.6088
vn 0 -0.5874 -0.8093
vn 0 -0.7706 -0.6373
vn -0.2915 -0.9127 -0.2861
vn 0.6555 0.3657 0.6607
vn 0.9042 0.4271 0
vn 0.9579 0.287 0
vn 0.6364 0.462 0.6177
vn 0 -0.5874 0.8093
vn -0.6079 -0.5096 0.6088
vn -0.2915 -0.9127 0.2861
vn 0 -0.7706 0.6373
vn 0.6079 -0.5096 0.6088
vn 0.2915 -0.9127 0.2861
vn 0.7046 0.1078 -0.7014
vn 0 0.0754 -0.9971
vn 0.6555 0.3657 -0.6607
vn -0.9966 0.0817 0
vn -0.7046 0.1078 0.7014
vn -0.9042 0.4271 0
vn 0 0.0754 0.9971
vn 0.7046 0.1078 0.7014
vn 0.9966 0.0817 0
vn -0.7046 0.1078 -0.7014
vn 0 0.7072 0.707
vn -0.707 0.7072 0
vn -0.5778 0.5763 0.5778
vn 0 0.7072 -0.707
vn -0.5778 0.5763 -0.5778
vn 0.707 0.7072 0
vn 0.5778 0.5763 0.5778
vn 0.5778 0.5763 -0.5778
vn -0.8129 -0.5823 0
vn 0 -0.9856 0.1691
vn 0 -0.1691 0.9856
vn -0.8165 0.4082 0.4082
vn -0.8165 -0.4082 -0.4082
vn 0 0.9856 -0.1691
vn 0 0.1691 -0.9856
vn 0.8165 0.4082 0.4082
vn 0.8165 -0.4082 -0.4082
vn 0 0.7861 0.6181
vn 0.2809 0.9193 0.2756
vn -0.2809 0.9193 0.2756
vn 0.6301 0.7765 0
vn -0.9579 0.287 0
vn -0.6485 -0.7612 0
vn 0.6364 0.462 -0.6177
vn -0.7093 -0.0045 0.7049
vn -1 0.0036 0
vn 0.7093 -0.0045 -0.7049
vn 1 0.0036 0
vn -0.7093 -0.0045 -0.7049
vn 0 0.011 -0.9999
vn 0.7093 -0.0045 0.7049
vn 0 0.011 0.9999
vn 0.6848 0.2488 -0.6848
vn -0.707 0.0188 -0.707
vn -0.9168 -0.3992 0
vn 0.9168 -0.3992 0
vn 0.707 0.0188 -0.707
vn 0 -0.3992 -0.9168
vn -0.707 0.0188 0.707
vn 0 -0.3992 0.9168
vn 0.707 0.0188 0.707
#end 154 normals 

#begin 158 faces
o 立方體_立方體:001
usemtl None
s 1
f 5/5/1 2/2/2 141/141/3 148/148/4 
f 4/4/5 7/7/6 144/144/7 143/143/8 
f 25/25/9 4/189/5 143/187/8 142/142/10 
f 12/12/11 3/3/12 102/102/13 101/101/14 
f 27/27/15 12/176/11 101/175/14 104/104/16 
f 33/33/17 21/165/18 16/16/19 30/30/20 
f 10/10/21 1/1/22 100/100/23 99/99/24 
f 18/18/25 19/19/26 23/23/27 22/22/28 
f 22/22/28 23/23/27 20/20/29 14/14/30 
f 30/30/20 31/31/31 19/169/26 18/18/25 
f 21/165/18 24/24/32 17/17/33 16/16/19 
f 29/29/34 32/32/35 15/15/36 13/13/37 
f 9/9/38 28/28/39 105/105/40 103/103/41 
f 13/13/37 15/188/36 24/24/32 21/165/18 
f 15/15/36 32/32/35 108/108/42 93/93/43 
f 3/3/12 9/182/38 103/185/41 102/102/13 
f 29/29/34 13/13/37 21/165/18 33/33/17 
f 14/14/30 29/29/34 33/33/17 22/22/28 
f 11/11/44 27/27/15 104/104/16 95/95/45 
f 17/17/33 24/24/32 94/94/46 96/96/47 
f 14/14/30 20/180/29 32/32/35 29/29/34 
f 16/16/19 17/197/33 31/31/31 30/30/20 
f 22/22/28 33/33/17 30/30/20 18/18/25 
f 26/26/48 6/6/49 147/147/50 146/146/51 
f 25/25/9 2/177/2 41/41/52 34/34/53 
f 5/5/1 6/172/49 39/39/54 40/40/55 
f 8/8/56 7/7/6 36/36/57 37/37/58 
f 2/2/2 5/5/1 40/40/55 41/183/52 
f 7/7/6 4/4/5 35/35/59 36/36/57 
f 26/26/48 8/163/56 37/164/58 38/38/60 
f 4/189/5 25/25/9 34/34/53 35/193/59 
f 6/6/49 26/26/48 38/38/60 39/171/54 
f 45/45/61 49/49/62 58/58/17 
f 48/48/63 46/46/64 58/242/17 
f 47/47/65 42/42/66 58/207/17 
f 44/44/67 45/199/61 58/241/17 
f 35/193/59 34/34/53 59/195/68 
f 39/171/54 38/38/60 59/59/68 
f 40/40/55 39/39/54 59/184/68 
f 34/34/53 41/41/52 59/195/68 
f 46/46/64 48/48/63 55/55/69 50/50/70 
f 42/42/66 47/47/65 52/52/71 53/234/72 
f 49/49/62 45/45/61 56/56/73 57/57/74 
f 45/199/61 44/44/67 51/51/75 56/205/73 
f 43/43/76 42/235/66 53/53/72 54/54/77 
f 44/240/67 46/224/64 50/232/70 51/239/75 
f 48/244/63 43/216/76 54/218/77 55/243/69 
f 47/209/65 49/237/62 57/236/74 52/210/71 
f 60/60/78 61/61/79 110/110/80 111/111/81 
f 79/79/82 83/83/83 124/124/84 116/116/85 
f 62/62/86 63/63/87 113/113/88 119/119/89 
f 77/77/90 81/81/91 112/112/92 109/109/93 
f 67/67/94 65/65/95 123/123/96 122/122/97 
f 78/78/98 82/82/99 120/120/100 114/114/101 
f 63/63/87 67/200/94 122/198/97 113/113/88 
f 83/83/83 84/84/102 121/121/103 124/124/84 
f 49/237/62 47/209/65 58/238/17 
f 43/216/76 48/244/63 58/215/17 
f 46/224/64 44/240/67 58/226/17 
f 42/235/66 43/43/76 58/233/17 
f 38/38/60 37/164/58 59/59/68 
f 36/36/57 35/35/59 59/173/68 
f 41/183/52 40/40/55 59/184/68 
f 37/37/58 36/36/57 59/173/68 
f 131/131/104 125/125/105 60/60/78 64/64/106 
f 132/132/107 126/126/108 62/212/86 66/66/109 
f 130/130/110 128/128/111 67/200/94 63/63/87 
f 128/204/111 127/127/112 65/65/95 67/67/94 
f 126/211/108 130/130/110 63/63/87 62/62/86 
f 125/125/105 129/129/113 61/61/79 60/60/78 
f 127/127/112 131/229/104 64/231/106 65/65/95 
f 129/219/113 132/132/107 66/66/109 61/223/79 
f 69/69/114 68/68/68 71/71/115 76/76/116 
f 68/68/68 70/70/117 73/73/118 71/71/115 
f 72/72/119 68/68/68 69/69/114 75/75/120 
f 74/74/121 70/70/117 68/68/68 72/72/119 
f 77/221/90 80/80/122 71/71/115 73/73/118 
f 83/83/83 79/79/82 74/74/121 72/72/119 
f 81/81/91 77/77/90 73/73/118 70/70/117 
f 82/82/99 78/78/98 69/69/114 76/76/116 
f 84/84/102 83/83/83 72/72/119 75/75/120 
f 78/78/98 84/201/102 75/75/120 69/69/114 
f 80/80/122 82/206/99 76/76/116 71/71/115 
f 79/225/82 81/81/91 70/70/117 74/74/121 
f 85/85/123 86/86/124 88/88/125 87/160/126 
f 87/87/126 88/157/125 92/92/127 91/162/128 
f 91/91/128 92/161/127 90/90/129 89/89/130 
f 89/89/130 90/90/129 86/86/124 85/85/123 
f 87/87/126 91/162/128 89/89/130 85/85/123 
f 92/158/127 88/159/125 86/86/124 90/90/129 
f 99/99/24 100/100/23 94/94/46 93/191/43 
f 101/101/14 102/102/13 98/98/131 97/97/132 
f 100/100/23 95/166/45 96/96/47 94/94/46 
f 102/102/13 103/185/41 106/106/133 98/98/131 
f 105/105/40 99/194/24 93/93/43 108/108/42 
f 104/104/16 101/175/14 97/174/132 107/107/134 
f 95/95/45 104/104/16 107/107/134 96/167/47 
f 103/103/41 105/105/40 108/108/42 106/186/133 
f 1/1/22 11/21/44 95/166/45 100/100/23 
f 23/23/27 19/19/26 97/97/132 98/98/131 
f 28/28/39 10/196/21 99/194/24 105/105/40 
f 31/31/31 17/197/33 96/167/47 107/107/134 
f 32/32/35 20/180/29 106/186/133 108/108/42 
f 20/20/29 23/23/27 98/98/131 106/106/133 
f 19/169/26 31/31/31 107/107/134 97/174/132 
f 24/24/32 15/188/36 93/191/43 94/94/46 
f 111/111/81 110/110/80 109/109/93 112/112/92 
f 110/217/80 118/118/135 117/117/136 109/222/93 
f 115/115/137 111/111/81 112/112/92 116/227/85 
f 113/113/88 122/198/97 121/202/103 114/114/101 
f 119/119/89 113/113/88 114/114/101 120/120/100 
f 123/123/96 115/230/137 116/116/85 124/124/84 
f 118/118/135 119/208/89 120/214/100 117/117/136 
f 122/122/97 123/123/96 124/124/84 121/121/103 
f 80/80/122 77/221/90 109/222/93 117/117/136 
f 81/81/91 79/225/82 116/227/85 112/112/92 
f 65/65/95 64/231/106 115/230/137 123/123/96 
f 82/206/99 80/80/122 117/117/136 120/214/100 
f 61/223/79 66/66/109 118/118/135 110/217/80 
f 64/64/106 60/60/78 111/111/81 115/115/137 
f 84/201/102 78/78/98 114/114/101 121/202/103 
f 66/66/109 62/212/86 119/208/89 118/118/135 
f 9/9/38 133/133/138 140/140/139 28/28/39 
f 11/11/44 135/135/140 139/139/141 27/27/15 
f 10/10/21 134/134/142 138/138/143 1/1/22 
f 12/12/11 136/136/144 137/137/145 3/3/12 
f 3/3/12 137/137/145 133/178/138 9/182/38 
f 27/27/15 139/139/141 136/170/144 12/176/11 
f 1/1/22 138/138/143 135/192/140 11/21/44 
f 28/28/39 140/140/139 134/190/142 10/196/21 
f 140/140/139 142/142/10 143/187/8 134/190/142 
f 138/138/143 144/144/7 145/145/146 135/192/140 
f 139/139/141 146/146/51 147/147/50 136/170/144 
f 137/137/145 148/148/4 141/141/3 133/178/138 
f 136/136/144 147/168/50 148/148/4 137/137/145 
f 134/134/142 143/143/8 144/144/7 138/138/143 
f 135/135/140 145/181/146 146/146/51 139/139/141 
f 133/133/138 141/179/3 142/142/10 140/140/139 
f 6/172/49 5/5/1 148/148/4 147/168/50 
f 7/7/6 8/8/56 145/145/146 144/144/7 
f 2/177/2 25/25/9 142/142/10 141/179/3 
f 8/163/56 26/26/48 146/146/51 145/181/146 
f 153/153/147 156/156/148 132/132/107 129/219/113 
f 151/151/149 155/155/150 131/229/104 127/127/112 
f 149/149/151 153/220/147 129/129/113 125/125/105 
f 150/150/152 154/154/153 130/130/110 126/211/108 
f 152/152/154 151/151/149 127/127/112 128/204/111 
f 154/154/153 152/203/154 128/128/111 130/130/110 
f 156/156/148 150/213/152 126/126/108 132/132/107 
f 155/228/150 149/149/151 125/125/105 131/131/104 
f 50/50/70 55/55/69 149/149/151 155/228/150 
f 53/234/72 52/52/71 150/213/152 156/156/148 
f 57/57/74 56/56/73 152/203/154 154/154/153 
f 56/205/73 51/51/75 151/151/149 152/152/154 
f 52/210/71 57/236/74 154/154/153 150/150/152 
f 55/243/69 54/218/77 153/220/147 149/149/151 
f 51/239/75 50/232/70 155/155/150 151/151/149 
f 54/54/77 53/53/72 156/156/148 153/153/147 
#end 158 faces

#begin properties
#U3DPROPERTIES_02 table {Mesh table {SymPlane table {Point vector3d 0 0 0  Normal vector3d 1 0 0  Threshold double 0.01 Enabled bool false UPos double 0.5 LocalMode bool false } RootGroup CSubMeshGroup {Children table {Tile_0_0 CSubMeshGroup {Children table {} IslandIDs ints { 0 1 2 } BBoxUV box3d 0 0 0 0 0 0 BBox3D box3d 0 0 0 0 0 0 AreaUV double 0 Area3D double 0 IsRoot bool false TopoStable table {Selected bool false Box box3d 0 1 0 1 0 1 U int 0 V int 0 NU int 0 NV int 0 Tiling vector3d 50 50 1  TileRatioMode string "1:1" } IsTile bool true } } IslandIDs ints { } BBoxUV box3d 0 0 0 0 0 0 BBox3D box3d 0 0 0 0 0 0 AreaUV double 0 Area3D double 0 IsRoot bool true TopoStable table {Selected bool false Box box3d 0 1 0 1 0 1 U int 0 V int 0 NU int 1 NV int 1 Tiling vector3d 50 50 1  TileRatioMode string "1:1" Pack table {Rotate table {Mode int 2 Min double 0 Max double 180 Step double 0 } SpacingSize double 0.00390625 MarginSize double 0.001953125 Resolution int 200 Scaling table {Mode int 0 } LayoutScalingMode int 2 MaxMutations int 1 } } IsTile bool false } Maps table {Density table {PrimType string "Polygon" Size int 1 DefaultValue double 1 ScaleType string "Log" MinValue double 0.1 MaxValue double 4 Data doubles { r 158 1 } } Pin table {PrimType string "Vertex" Size int 1 DefaultValue double 0 ScaleType string "Normalized" MinValue double 0 MaxValue double 1 Data doubles { r 244 0 } } Protect table {PrimType string "Vertex" Size int 1 DefaultValue double 0 ScaleType string "Normalized" MinValue double -1 MaxValue double 1 Data doubles { r 244 0 } } } } }
#end properties

#begin 0 fatal error vertex (that Unfold3D cannot handle)
#end 0 fatal error vertex (that Unfold3D cannot handle)

#begin 0 error vertex
#end 0 error vertex
