# Blender v2.82 (sub 7) OBJ File: 'Statue.blend'
# www.blender.org
mtllib Statue_L.mtl
o 立方體:001.001
v -0.664357 3.234314 -0.551176
v -0.664357 3.234314 0.547692
v -0.074556 3.234314 0.547692
v -0.074556 3.234314 -0.551176
v -0.664357 2.303015 -0.643045
v -0.664357 3.093426 -0.643045
v -0.074556 3.093426 -0.643045
v -0.074556 2.303015 -0.643045
v 0.601654 3.093426 -0.643045
v 0.601653 2.303015 -0.643045
v -0.664359 -0.016431 0.639561
v -0.664359 -0.016431 -0.643045
v -0.074558 -0.016431 -0.643045
v -0.074558 -0.016431 0.639561
v 0.601654 3.234314 0.547692
v 0.601654 3.234314 -0.551176
v -0.074556 2.303015 0.639561
v -0.664357 2.303015 0.639561
v -0.074556 3.093426 0.639561
v -0.664357 3.093426 0.639561
v 0.601654 3.093426 0.639561
v 0.601654 2.303015 0.639561
v 0.765093 2.067382 0.862284
v 0.765093 2.447173 1.030959
v -0.828306 2.447173 1.030959
v -0.828306 2.067383 0.862284
v -0.828306 2.067383 -0.160441
v -0.828306 2.447173 -0.160441
v -0.828306 2.447173 -1.026025
v -0.828307 2.067383 -0.857350
v 0.765093 2.447173 -1.026025
v 0.765093 2.067382 -0.857350
v 0.765093 2.067382 0.165375
v 0.765093 2.447173 0.165375
v 0.765093 2.067382 -0.160441
v -0.828306 2.447173 0.165375
v 0.765093 2.447173 -0.160441
v -0.828306 2.067383 0.056770
v 0.765093 2.067382 0.056770
v -0.828306 2.067383 0.165375
v 0.765093 2.344874 -0.051835
v 0.765093 2.067382 -0.051835
v 0.765093 2.344874 0.056770
v -0.828306 2.344874 0.056770
v -0.828306 2.344874 -0.051835
v -0.828306 2.067383 -0.051835
v 0.592662 1.793030 0.580006
v 0.592663 2.234615 0.580006
v -0.082659 2.234615 0.580006
v -0.082660 1.793030 0.580006
v -0.082661 1.447173 -0.001742
v -0.082659 2.234615 -0.001742
v -0.082659 2.234615 -0.583489
v -0.082660 1.793030 -0.583489
v 0.592663 2.234615 -0.583489
v 0.592662 1.793030 -0.583489
v 0.592662 1.447172 -0.001742
v 0.592663 2.234615 -0.001742
v 0.000002 3.084383 -0.410121
v 0.000002 3.671643 -0.410121
v -0.100703 3.672210 -0.410121
v -0.100703 3.086098 -0.410121
v -0.100703 3.608960 -0.561706
v -0.100703 3.167879 -0.591422
v -0.004870 3.086214 -0.648648
v 0.000002 3.608763 -0.561829
v 0.100707 3.608960 -0.561831
v 0.100707 3.167879 -0.591422
v 0.100707 3.672210 -0.410121
v 0.100707 3.086098 -0.410121
v 0.000002 3.084383 0.402002
v -0.100703 3.086098 0.402002
v -0.100703 3.672210 0.402002
v 0.000002 3.671643 0.402002
v -0.100703 3.167879 0.583304
v -0.100703 3.608960 0.553587
v -0.004870 3.086214 0.640529
v 0.100707 3.167879 0.583304
v 0.100707 3.608960 0.553712
v 0.000002 3.608763 0.553710
v 0.100707 3.086098 0.402002
v 0.100707 3.672210 0.402002
vt 0.483105 0.315659
vt 0.362307 0.253178
vt 0.395843 0.188342
vt 0.516640 0.250823
vt 0.588484 0.370165
vt 0.501594 0.325223
vt 0.535130 0.260387
vt 0.622019 0.305329
vt 0.573579 0.186051
vt 0.660469 0.230994
vt 0.167372 0.605307
vt 0.308368 0.678235
vt 0.274832 0.743072
vt 0.133836 0.670143
vt 0.434292 0.114006
vt 0.555090 0.176488
vt 0.142949 0.998047
vt 0.001953 0.925119
vt 0.843459 0.502048
vt 0.876995 0.437212
vt 0.299254 0.350332
vt 0.440251 0.423260
vt 0.035489 0.001953
vt 0.290464 0.133836
vt 0.256928 0.198673
vt 0.001953 0.066790
vt 0.377353 0.178778
vt 0.343818 0.243615
vt 0.618142 0.079334
vt 0.573200 0.166223
vt 0.432203 0.093295
vt 0.477146 0.006406
vt 0.344197 0.263442
vt 0.485193 0.336371
vt 0.768894 0.669501
vt 0.726879 0.669495
vt 0.726861 0.472742
vt 0.768865 0.472676
vt 0.570146 0.436590
vt 0.570164 0.473058
vt 0.462785 0.472755
vt 0.483698 0.436413
vt 0.420772 0.472736
vt 0.462778 0.669498
vt 0.420772 0.669550
vt 0.619530 0.705800
vt 0.619491 0.669279
vt 0.705968 0.705812
vt 0.570203 0.903329
vt 0.483777 0.903372
vt 0.483699 0.705808
vt 0.570118 0.705681
vt 0.619564 0.473157
vt 0.570097 0.669177
vt 0.601650 0.894956
vt 0.601600 0.697261
vt 0.614823 0.697824
vt 0.615082 0.894969
vt 0.588154 0.673408
vt 0.588419 0.697160
vt 0.575229 0.697761
vt 0.706104 0.903385
vt 0.619676 0.903440
vt 0.601958 0.673316
vt 0.601442 0.469080
vt 0.587762 0.469172
vt 0.588992 0.445320
vt 0.600362 0.445737
vt 0.577309 0.444028
vt 0.612024 0.444330
vt 0.705928 0.436412
vt 0.619533 0.436700
vt 0.574756 0.894959
vt 0.588223 0.894955
vt 0.772862 0.226554
vt 0.758675 0.281054
vt 0.670245 0.261390
vt 0.680591 0.206117
vt 0.705969 0.137939
vt 0.622833 0.120521
vt 0.648811 0.044070
vt 0.706214 0.056453
vt 0.720402 0.001953
vt 0.808832 0.021617
vt 0.798485 0.076889
vt 0.773107 0.145067
vt 0.856243 0.162485
vt 0.830265 0.238937
vt 0.856243 0.080246
vt 0.622833 0.202761
vt 0.415802 0.104443
vt 0.328913 0.059500
vt 0.123856 0.268365
vt 0.083536 0.207866
vt 0.093901 0.200932
vt 0.134106 0.261280
vt 0.134106 0.140559
vt 0.082632 0.184033
vt 0.109818 0.136553
vt 0.036903 0.135590
vt 0.072213 0.190867
vt 0.061879 0.197839
vt 0.031152 0.152609
vt 0.007597 0.204685
vt 0.073147 0.214759
vt 0.001953 0.228646
vt 0.053908 0.137494
vt 0.113368 0.275102
vt 0.148136 0.325955
vt 0.137885 0.318870
vt 0.178090 0.258521
vt 0.188456 0.265456
vt 0.137885 0.198149
vt 0.162173 0.194143
vt 0.189360 0.241623
vt 0.235089 0.193180
vt 0.240839 0.210199
vt 0.210113 0.255428
vt 0.199779 0.248457
vt 0.264395 0.262275
vt 0.270038 0.286236
vt 0.198845 0.272349
vt 0.218084 0.195084
vt 0.158624 0.332692
vn 0.0000 1.0000 -0.0000
vn 0.0000 0.0000 -1.0000
vn -0.0000 -1.0000 -0.0000
vn 1.0000 -0.0000 -0.0000
vn -1.0000 0.0000 0.0000
vn 0.0000 0.0000 1.0000
vn -0.0000 -0.4059 0.9139
vn -0.0000 -0.4059 -0.9139
vn 0.0000 0.7279 -0.6857
vn 0.0000 0.7279 0.6857
vn -0.0000 -0.8596 -0.5110
vn -0.0000 -0.8596 0.5110
vn 0.0000 0.5462 0.8376
vn 0.0000 0.5462 -0.8376
vn 0.0000 0.5462 0.8377
vn 0.0000 0.5462 -0.8377
vn 0.2226 0.1158 -0.9680
vn -0.0035 0.9234 -0.3838
vn 0.0033 0.9233 -0.3840
vn -0.2326 0.1179 -0.9654
vn 0.2226 0.1158 0.9680
vn -0.0035 0.9234 0.3838
vn 0.0033 0.9233 0.3840
vn -0.2326 0.1179 0.9654
usemtl None.002
s off
f 1/1/1 2/2/1 3/3/1 4/4/1
f 5/5/2 6/6/2 7/7/2 8/8/2
f 8/8/2 7/7/2 9/9/2 10/10/2
f 11/11/3 12/12/3 13/13/3 14/14/3
f 4/4/1 3/3/1 15/15/1 16/16/1
f 13/13/4 8/17/4 17/18/4 14/14/4
f 12/19/2 5/5/2 8/8/2 13/20/2
f 11/11/5 18/21/5 5/22/5 12/12/5
f 14/23/6 17/24/6 18/25/6 11/26/6
f 17/24/6 19/27/6 20/28/6 18/25/6
f 10/29/4 9/30/4 21/31/4 22/32/4
f 18/21/5 20/33/5 6/34/5 5/22/5
f 23/35/7 24/36/7 25/37/7 26/38/7
f 27/39/5 28/40/5 29/41/5 30/42/5
f 30/43/8 29/41/8 31/44/8 32/45/8
f 33/46/4 34/47/4 24/36/4 23/48/4
f 27/49/3 30/50/3 32/51/3 35/52/3
f 36/53/1 25/37/1 24/36/1 34/47/1
f 29/41/1 28/40/1 37/54/1 31/44/1
f 38/55/3 39/56/3 33/57/3 40/58/3
f 37/54/4 41/59/4 42/60/4 35/61/4
f 26/62/3 40/63/3 33/46/3 23/48/3
f 43/64/4 34/47/4 33/57/4 39/56/4
f 44/65/5 45/66/5 46/67/5 38/68/5
f 32/51/4 31/44/4 37/54/4 35/52/4
f 45/66/5 28/40/5 27/69/5 46/67/5
f 36/53/5 44/65/5 38/68/5 40/70/5
f 26/71/5 25/37/5 36/53/5 40/72/5
f 36/53/9 34/47/9 43/64/9 44/65/9
f 44/65/1 43/64/1 41/59/1 45/66/1
f 45/66/10 41/59/10 37/54/10 28/40/10
f 41/59/4 43/64/4 39/56/4 42/60/4
f 27/73/3 35/61/3 42/60/3 46/74/3
f 46/74/3 42/60/3 39/56/3 38/55/3
f 47/75/6 48/76/6 49/77/6 50/78/6
f 51/79/5 52/80/5 53/81/5 54/82/5
f 54/82/2 53/83/2 55/84/2 56/85/2
f 57/86/4 58/87/4 48/88/4 47/75/4
f 51/79/11 54/82/11 56/85/11 57/86/11
f 50/78/12 51/79/12 57/86/12 47/75/12
f 56/85/4 55/89/4 58/87/4 57/86/4
f 50/78/5 49/90/5 52/80/5 51/79/5
f 3/3/13 2/2/13 20/28/13 19/27/13
f 1/1/14 4/4/14 7/7/14 6/6/14
f 15/15/15 3/3/15 19/27/15 21/91/15
f 4/4/16 16/16/16 9/9/16 7/7/16
f 19/27/6 17/24/6 22/92/6 21/91/6
f 59/93/6 60/94/6 61/95/6 62/96/6
f 62/97/5 61/95/5 63/98/5 64/99/5
f 65/100/17 66/101/17 67/102/17 68/103/17
f 68/104/4 67/102/4 69/105/4 70/106/4
f 66/101/18 60/94/18 69/105/18 67/102/18
f 63/98/19 61/95/19 60/94/19 66/101/19
f 64/107/20 63/98/20 66/101/20 65/100/20
f 70/108/6 69/105/6 60/94/6 59/93/6
f 71/109/2 72/110/2 73/111/2 74/112/2
f 72/113/5 75/114/5 76/115/5 73/111/5
f 77/116/21 78/117/21 79/118/21 80/119/21
f 78/120/4 81/121/4 82/122/4 79/118/4
f 80/119/22 79/118/22 82/122/22 74/112/22
f 76/115/23 80/119/23 74/112/23 73/111/23
f 75/123/24 77/116/24 80/119/24 76/115/24
f 81/124/2 71/109/2 74/112/2 82/122/2
f 21/31/4 9/30/4 16/16/4 15/15/4
f 6/34/5 20/33/5 2/2/5 1/1/5
