#File written by LIBUNFOLD3D. Compilation :Apr 13 2018,19:30:35
mtllib :/Building1:mtl
#begin vertices
v 15.88437 -36.28781 11.80115
v -10.93214 -36.28782 11.80114
v 15.88437 65.7209 11.80114
v -10.93215 65.7209 11.80114
v -10.93211 -36.28782 -14.16065
v -10.93214 65.72089 -14.16067
v 15.88441 -36.28781 -14.16066
v 15.88437 65.72089 -14.16066
v 3.069733 98.4988 -0.6049829
v 1.882333 98.4988 -0.6049826
v 3.069746 98.49879 -1.754536
v 1.882347 98.49879 -1.754535
v 11.04801 65.72098 7.118968
v -6.095844 65.72098 7.118969
v 11.04802 65.72096 -9.478467
v -6.095811 65.72097 -9.478482
v 8.480083 79.11806 4.632883
v -3.527917 79.11806 4.632889
v 8.480088 79.11805 -6.992396
v -3.527892 79.11805 -6.992401
v 6.60001 79.11816 2.812729
v -1.647832 79.11816 2.812735
v 6.600024 79.11816 -5.172239
v -1.647815 79.11816 -5.172244
v 4.70714 89.48463 0.980195
v 0.245015 89.48463 0.9802031
v 4.707141 89.48463 -3.339712
v 0.2450209 89.48464 -3.339718
v 3.402774 89.48476 -0.2825777
v 1.549345 89.48475 -0.2825838
v 3.402786 89.48476 -2.076931
v 1.549355 89.48476 -2.076936
#end vertices

#begin 50 textures vertices 
vt 0.1654821 0.1567127 0
vt 0.004787023 0.1601102 0
vt 0.1536207 0.7346673 0
vt 0.001953125 0.7725591 0
vt 0.4922468 0.1740266 0
vt 0.4426481 0.7547024 0
vt 0.3306369 0.1625758 0
vt 0.2890385 0.7790016 0
vt 0.1341986 0.978964 0
vt 0.1274128 0.9786076 0
vt 0.1339406 0.9858142 0
vt 0.1269672 0.9854532 0
vt 0.1498694 0.762257 0
vt 0.04532991 0.7925069 0
vt 0.2490038 0.7972795 0
vt 0.436642 0.7819349 0
vt 0.1478409 0.8407337 0
vt 0.08453956 0.862236 0
vt 0.2027457 0.8704559 0
vt 0.4276755 0.8599718 0
vt 0.1459414 0.8530365 0
vt 0.09892127 0.8688043 0
vt 0.1886208 0.875032 0
vt 0.4246907 0.8720608 0
vt 0.140634 0.9156298 0
vt 0.1180228 0.9225165 0
vt 0.1591058 0.9279573 0
vt 0.413758 0.9339241 0
vt 0.1389051 0.9248784 0
vt 0.1280079 0.9274539 0
vt 0.1488656 0.9294827 0
vt 0.4112007 0.9429788 0
vt 0.5743226 0.8115366 0
vt 0.4310409 0.9478748 0
vt 0.655244 0.1943232 0
vt 0.1621465 0.001953125 0
vt 0.001953125 0.005213133 0
vt 0.4652386 0.8978512 0
vt 0.4207037 0.948466 0
vt 0.4797383 0.8945849 0
vt 0.532576 0.8259911 0
vt 0.4016068 0.9964151 0
vt 0.4082404 0.9980469 0
vt 0.1409524 0.9799886 0
vt 0.3764787 0.8835178 0
vt 0.4001164 0.9445576 0
vt 0.3949291 0.9954516 0
vt 0.3906204 0.9387368 0
vt 0.3627726 0.8756794 0
vt 0.3302009 0.802725 0
#end 50 textures vertices 

#begin 18 normals 
vn -3.200666e-07 4.674473e-08 1
vn -1 -7.479157e-08 -1.285682e-06
vn -7.112587e-08 -1.495832e-07 -1
vn 1 3.459113e-07 1.432616e-06
vn -1.998921e-12 1 -6.636835e-06
vn 1.422518e-07 -1 2.037922e-13
vn 1.09388e-07 0.1824543 0.9832143
vn 0.9821209 0.1882515 5.605453e-07
vn -0.9821211 0.1882506 -2.061646e-06
vn 9.563015e-07 0.1824539 -0.9832144
vn 5.506125e-07 0.1740762 0.9847322
vn 0.9837349 0.1796264 1.644876e-06
vn -0.9837356 0.1796229 -2.114838e-06
vn 4.082867e-07 0.174075 -0.9847324
vn -3.556335e-06 0.03574402 0.999361
vn 0.9993182 0.03692132 6.373487e-06
vn -0.9993184 0.03691571 -5.262882e-06
vn 2.699637e-06 0.03574361 -0.999361
#end 18 normals 

#begin 30 faces
o Building1
usemtl Lit
g Building (11)
f 3/3/1 4/4/1 2/2/1 1/1/1 
f 4/33/2 6/6/2 5/5/2 2/35/2 
f 6/6/3 8/8/3 7/7/3 5/5/3 
f 8/8/4 3/3/4 1/1/4 7/7/4 
f 11/11/5 12/12/5 10/10/5 9/9/5 
f 1/1/6 2/2/6 5/37/6 7/36/6 
f 13/13/5 14/14/5 4/4/5 3/3/5 
f 15/15/5 13/13/5 3/3/5 8/8/5 
f 14/41/5 16/16/5 6/6/5 4/33/5 
f 16/16/5 15/50/5 8/8/5 6/6/5 
f 17/17/7 18/18/7 14/14/7 13/13/7 
f 19/19/8 17/17/8 13/13/8 15/15/8 
f 18/40/9 20/20/9 16/16/9 14/41/9 
f 20/20/10 19/49/10 15/50/10 16/16/10 
f 21/21/5 22/22/5 18/18/5 17/17/5 
f 23/23/5 21/21/5 17/17/5 19/19/5 
f 22/38/5 24/24/5 20/20/5 18/40/5 
f 24/24/5 23/45/5 19/49/5 20/20/5 
f 25/25/11 26/26/11 22/22/11 21/21/11 
f 27/27/12 25/25/12 21/21/12 23/23/12 
f 26/34/13 28/28/13 24/24/13 22/38/13 
f 28/28/14 27/48/14 23/45/14 24/24/14 
f 29/29/5 30/30/5 26/26/5 25/25/5 
f 31/31/5 29/29/5 25/25/5 27/27/5 
f 30/39/5 32/32/5 28/28/5 26/34/5 
f 32/32/5 31/46/5 27/48/5 28/28/5 
f 9/9/15 10/10/15 30/30/15 29/29/15 
f 11/44/16 9/9/16 29/29/16 31/31/16 
f 10/43/17 12/42/17 32/32/17 30/39/17 
f 12/42/18 11/47/18 31/46/18 32/32/18 
#end 30 faces

#begin properties
#U3DPROPERTIES_02 table {Mesh table {SymPlane table {Point vector3d 0 0 0  Normal vector3d 1 0 0  Threshold double 0.01 Enabled bool false UPos double 0.5 LocalMode bool false } RootGroup CSubMeshGroup {Children table {Tile_0_0 CSubMeshGroup {Children table {} IslandIDs ints { 0 } BBoxUV box3d 0 0 0 0 0 0 BBox3D box3d 0 0 0 0 0 0 AreaUV double 0 Area3D double 0 IsRoot bool false TopoStable table {Selected bool false Box box3d 0 1 0 1 0 1 U int 0 V int 0 NU int 0 NV int 0 Tiling vector3d 50 50 1  TileRatioMode string "1:1" } IsTile bool true } } IslandIDs ints { } BBoxUV box3d 0 0 0 0 0 0 BBox3D box3d 0 0 0 0 0 0 AreaUV double 0 Area3D double 0 IsRoot bool true TopoStable table {Selected bool false Box box3d 0 1 0 1 0 1 U int 0 V int 0 NU int 1 NV int 1 Tiling vector3d 50 50 1  TileRatioMode string "1:1" Pack table {Rotate table {Mode int 2 Min double 0 Max double 180 Step double 0 } SpacingSize double 0.00390625 MarginSize double 0.001953125 Resolution int 200 Scaling table {Mode int 0 } LayoutScalingMode int 2 MaxMutations int 1 } } IsTile bool false } Maps table {Density table {PrimType string "Polygon" Size int 1 DefaultValue double 1 ScaleType string "Log" MinValue double 0.1 MaxValue double 4 Data doubles { r 30 1 } } Pin table {PrimType string "Vertex" Size int 1 DefaultValue double 0 ScaleType string "Normalized" MinValue double 0 MaxValue double 1 Data doubles { r 50 0 } } Protect table {PrimType string "Vertex" Size int 1 DefaultValue double 0 ScaleType string "Normalized" MinValue double -1 MaxValue double 1 Data doubles { r 50 0 } } } } }
#end properties

#begin 0 fatal error vertex (that Unfold3D cannot handle)
#end 0 fatal error vertex (that Unfold3D cannot handle)

#begin 0 error vertex
#end 0 error vertex
